# xmcd
#
# Track frame offsets: 
#        180
#        13643
#        34796
#        48068
#        57748
#        69893
#        82695
#        97084
#        114170
#        125353
#        139048
#        163295
#        172720
#        186999
#        203843
#        215319
#        228650
#        240444
#
# Disc length: 3383 seconds
#
# Revision: 1
# Processed by: cddbd v1.5.2PL0 Copyright (c) Steve Scherf et al.
# Submitted via: ExactAudioCopy v1.0b3
#
DISCID=e90d3512
DTITLE=Various Artist - Brown Soul
DYEAR=1996
DGENRE=Soul
TTITLE0=Eddie Floyd - Knock On Wood
TTITLE1=Rufus Thomas - Funky Chicken
TTITLE2=Sam and Dave - Soulman
TTITLE3=James Brown - Papas Got A Brand New Bag
TTITLE4=King Curtis - Soul Twist
TTITLE5=Bob and Earl - Harlem Shuffle
TTITLE6=Sly and The Family Stone - I Cant Turn You Loose
TTITLE7=Ike and Tina Turner - Ive Been Loving You Too Long
TTITLE8=The Tymes - My Babe
TTITLE9=Ben E. King - Stand By Me
TTITLE10=Marvin Gaye - Inner City Blues
TTITLE11=Al Jarreau - Aint No Sunshine
TTITLE12=Wilson Pickett - If You Need Me
TTITLE13=Solomon Burke - Hold On Im Coming
TTITLE14=Lee Dorsey - Working In A Coal Mine
TTITLE15=Clarence Carter - Patches
TTITLE16=The Tams - Hey Girl Dont Bother Me
TTITLE17=The Ohio Players - A Little Soul Party
EXTD=
EXTT0=
EXTT1=
EXTT2=
EXTT3=
EXTT4=
EXTT5=
EXTT6=
EXTT7=
EXTT8=
EXTT9=
EXTT10=
EXTT11=
EXTT12=
EXTT13=
EXTT14=
EXTT15=
EXTT16=
EXTT17=
PLAYORDER=
